<?xml version="1.0" standalone="no"?><!DOCTYPE svg PUBLIC "-//W3C//DTD SVG 1.1//EN" "http://www.w3.org/Graphics/SVG/1.1/DTD/svg11.dtd"><svg t="1756805156884" class="icon" viewBox="0 0 1024 1024" version="1.1" xmlns="http://www.w3.org/2000/svg" p-id="2059" xmlns:xlink="http://www.w3.org/1999/xlink" width="200" height="200"><path d="M512.5 511.1m-447.5 0a447.5 447.5 0 1 0 895 0 447.5 447.5 0 1 0-895 0Z" fill="#FFAE55" p-id="2060"></path><path d="M786.6 439.9c0-22.2-18-40.2-40.3-40.2-22.2 0-40.3 18-40.3 40.2 0 9.8 3.5 18.8 9.3 25.7L606 537.8l-71.4-142.7c15.7-8 26.5-24.5 26.5-43.4 0-26.9-21.6-48.7-48.3-48.7-26.7 0-48.3 21.8-48.3 48.7 0 18.9 10.7 35.3 26.4 43.4l-71.4 142.7-109.3-72.2c5.8-7 9.3-16 9.3-25.8 0-22.2-18-40.2-40.3-40.2-22.2 0-40.3 18-40.3 40.2 0 22.2 18 40.3 40.3 40.3l48.3 241.5h370.3l48.3-241.5c22.5 0 40.5-18 40.5-40.2z" fill="#FFFFFF" p-id="2061"></path></svg>